<?xml version="1.0" encoding="UTF-8" standalone="no"?>
<svg
   viewBox="0 0 512 512"
   version="1.1"
   id="svg1"
   sodipodi:docname="globe-rotate-left-solid.svg"
   inkscape:version="1.3 (1:1.3+202307231459+0e150ed6c4)"
   xmlns:inkscape="http://www.inkscape.org/namespaces/inkscape"
   xmlns:sodipodi="http://sodipodi.sourceforge.net/DTD/sodipodi-0.dtd"
   xmlns="http://www.w3.org/2000/svg"
   xmlns:svg="http://www.w3.org/2000/svg">
  <defs
     id="defs1" />
  <sodipodi:namedview
     id="namedview1"
     pagecolor="#ffffff"
     bordercolor="#000000"
     borderopacity="0.25"
     inkscape:showpageshadow="2"
     inkscape:pageopacity="0.0"
     inkscape:pagecheckerboard="0"
     inkscape:deskcolor="#d1d1d1"
     inkscape:zoom="0.56347656"
     inkscape:cx="257.33102"
     inkscape:cy="537.7331"
     inkscape:window-width="1280"
     inkscape:window-height="1360"
     inkscape:window-x="0"
     inkscape:window-y="0"
     inkscape:window-maximized="0"
     inkscape:current-layer="svg1" />
  <!--! Font Awesome Pro 6.4.2 by @fontawesome - https://fontawesome.com License - https://fontawesome.com/license (Commercial License) Copyright 2023 Fonticons, Inc. -->
  <path
     d="M 75,75 41,41 C 25.9,25.9 0,36.6 0,57.9 V 168 c 0,13.3 20.004062,22.86582 31.050534,15.4587 C 54.710666,167.59359 76.762941,136.4223 123.15581,101.59715 169.54868,66.771992 203,52.169835 256,52.159829 376.09252,52.137158 458.62814,154.21901 458.62814,260.21901 c 0,106 -89.67278,196.07279 -195.67278,196.07279 -40.8,0 -85.45057,-12.46056 -116.55057,-34.16056 -14.5,-10.1 -39.20067,-8.85804 -46.16772,3.69803 C 93.350816,438.23974 95.1,455.9 109.6,466.1 151.2,495 201.7,512 256,512 397.4,512 512,397.4 512,256 512,114.6 397.4,0 256,0 185.3,0 121.3,28.7 75,75 Z"
     id="path1"
     sodipodi:nodetypes="csssszssscscsssc" />
  <path
     d="m 317.67687,255.99999 c 0,14.2628 -0.77096,28.01157 -2.12014,41.11789 H 196.44329 c -1.41344,-13.10631 -2.12014,-26.85509 -2.12014,-41.11789 0,-14.26278 0.77096,-28.01158 2.12014,-41.11789 h 119.11344 c 1.41341,13.10631 2.12014,26.85511 2.12014,41.11789 z m 18.50307,-41.11789 h 79.08769 c 3.40511,13.17055 5.20399,26.91934 5.20399,41.11789 0,14.19854 -1.7989,27.94734 -5.20399,41.11789 h -79.08769 c 1.34916,-13.23481 2.05587,-26.98361 2.05587,-41.11789 0,-14.13427 -0.70671,-27.88308 -2.05587,-41.11789 z m 72.34181,-20.55896 h -74.97596 c -6.42466,-41.05365 -19.14551,-75.42568 -35.52845,-97.398045 50.30521,13.299075 91.23038,49.791215 110.44015,97.398045 z m -95.79189,0 H 199.27013 c 3.91906,-23.38581 9.95824,-44.07327 17.34662,-60.84165 6.7459,-15.16224 14.26276,-26.14841 21.52265,-33.08707 7.19563,-6.810165 13.17057,-8.866045 17.86058,-8.866045 4.69003,0 10.665,2.0559 17.86059,8.866045 7.2599,6.93866 14.77677,17.92483 21.52268,33.08707 7.45262,16.70415 13.42756,37.3916 17.34661,60.84165 z m -134.27568,0 h -74.97591 c 19.274,-47.60683 60.13492,-84.09897 110.50438,-97.398045 -16.38293,21.972365 -29.10378,56.344395 -35.52847,97.398045 z M 96.732377,214.8821 h 79.087703 c -1.3492,13.23481 -2.05588,26.98362 -2.05588,41.11789 0,14.13426 0.70668,27.88308 2.05588,41.11789 H 96.732378 c -3.405107,-13.17055 -5.204002,-26.91935 -5.204002,-41.11789 0,-14.19855 1.798895,-27.94734 5.204001,-41.11789 z M 216.61675,378.45425 c -7.45263,-16.70415 -13.42757,-37.39159 -17.34662,-60.77741 h 113.45973 c -3.91905,23.38582 -9.95825,44.07326 -17.34661,60.77741 -6.74591,15.16225 -14.26278,26.14842 -21.52268,33.08708 -7.19559,6.87438 -13.17056,8.9303 -17.86057,8.9303 -4.69002,0 -10.66495,-2.05591 -17.86058,-8.86605 -7.25988,-6.93865 -14.77676,-17.92485 -21.52266,-33.08707 z m -38.16257,-60.77741 c 6.42469,41.05367 19.14553,75.42568 35.52846,97.39807 -50.36945,-13.29909 -91.23037,-49.79122 -110.50438,-97.39807 z m 230.06757,0 c -19.27403,47.60683 -60.13495,84.09897 -110.44015,97.39807 16.38293,-21.97239 29.03953,-56.34438 35.52845,-97.39807 z"
     id="path1-5"
     style="stroke-width:0.642466" />
</svg>
