<?xml version="1.0" encoding="UTF-8" standalone="no"?>
<svg
   xmlns:svg="http://www.w3.org/2000/svg"
   xmlns="http://www.w3.org/2000/svg"
   width="210" height="210"
   viewBox="0 0 210 210"
   version="1.0">
  <g transform="translate(-0.54532,-9.298e-2)">
    <g transform="matrix(1.25,0,0,-1.25,-279.45468,938.84298)">
      <path
         style="fill:#81bbf2;fill-opacity:1;fill-rule:nonzero;stroke:none"
         d="M 225.5,667 C 225.5,621.51 262.509,584.5 308,584.5 C 353.49,584.5 390.5,621.51 390.5,667 C 390.5,712.491 353.49,749.5 308,749.5 C 262.509,749.5 225.5,712.491 225.5,667" />
      <path
         style="fill:#666666;fill-opacity:1;fill-rule:nonzero;stroke:none"
         d="M 308,586 C 263.336,586 227,622.336 227,667 C 227,711.664 263.336,748 308,748 C 352.664,748 389,711.664 389,667 C 389,622.336 352.664,586 308,586 M 308,751 C 261.595,751 224,713.405 224,667 C 224,620.596 261.595,583 308,583 C 354.405,583 392,620.596 392,667 C 392,713.405 354.405,751 308,751" />
      <path
         style="fill:#b5b7bb;fill-opacity:1;fill-rule:nonzero;stroke:none"
         d="M 282.606,642.961 L 307.994,657.619 L 333.599,642.836 L 318.592,634.171 L 317.826,634.653 C 314.866,636.516 311.469,637.5 308,637.5 C 304.614,637.5 301.282,636.556 298.364,634.769 L 297.603,634.303 L 282.606,642.961 z M 307.994,664.394 C 307.994,664.394 302.75,673.478 301.611,675.451 C 299.254,674.09 265.406,654.548 263.049,653.188 C 264.171,651.244 268.286,644.116 268.286,644.116 C 268.286,644.116 263.225,635.351 262.049,633.313 C 264.413,631.948 289.569,617.424 289.569,617.424 L 289.661,616.685 C 290.815,607.458 298.7,600.5 308,600.5 C 317.171,600.5 325.039,607.352 326.301,616.438 L 326.401,617.164 C 326.401,617.164 351.575,631.698 353.939,633.063 C 352.76,635.106 347.63,643.991 347.63,643.991 C 347.63,643.991 351.813,651.236 352.939,653.188 C 350.582,654.548 316.734,674.09 314.377,675.451 C 313.238,673.478 307.994,664.394 307.994,664.394 M 289.339,717.088 L 289.267,716.317 C 289.267,716.317 265.413,702.545 263.061,701.188 C 264.263,699.104 271.175,687.132 272.378,685.049 C 274.723,686.403 297.803,699.728 297.803,699.728 L 298.552,699.297 C 301.356,697.685 304.537,696.833 307.75,696.833 C 310.906,696.833 314.031,697.652 316.788,699.2 L 317.533,699.619 C 317.533,699.619 341.283,685.906 343.635,684.549 C 344.837,686.632 351.749,698.604 352.951,700.688 C 350.594,702.048 326.236,716.112 326.236,716.112 L 326.17,716.894 C 325.375,726.392 317.285,733.833 307.75,733.833 C 298.153,733.833 290.238,726.634 289.339,717.088" />
      <path
         style="fill:#666666;fill-opacity:1;fill-rule:nonzero;stroke:none"
         d="M 285.607,642.962 L 307.995,655.888 L 330.598,642.837 L 318.624,635.923 C 315.543,637.862 311.908,639 308,639 C 304.178,639 300.619,637.909 297.581,636.048 L 285.607,642.962 z M 307.995,659.352 L 306.495,658.486 L 284.107,645.56 L 279.607,642.962 L 284.107,640.364 L 296.081,633.45 L 297.626,632.558 L 299.148,633.49 C 301.829,635.132 304.89,636 308,636 C 311.186,636 314.307,635.095 317.025,633.384 L 318.557,632.42 L 320.124,633.325 L 332.098,640.239 L 336.598,642.837 L 332.098,645.435 L 309.495,658.486 L 307.995,659.352 z M 265.098,652.639 L 301.063,673.402 L 305.397,665.894 L 307.995,661.393 L 310.593,665.894 L 314.926,673.402 L 350.89,652.639 L 346.764,645.492 L 345.898,643.992 L 346.764,642.492 L 351.891,633.612 L 326.286,618.83 L 325.016,618.097 L 324.814,616.645 C 324.255,612.618 322.259,608.915 319.193,606.219 C 316.102,603.498 312.125,602 308,602 C 299.455,602 292.211,608.393 291.15,616.871 L 290.965,618.351 L 289.673,619.097 L 264.098,633.863 L 269.152,642.617 L 270.018,644.117 L 269.152,645.617 L 265.098,652.639 z M 313.828,677.5 L 307.995,667.394 L 302.161,677.5 L 261,653.737 L 266.554,644.117 L 260,632.765 L 262.598,631.265 L 288.173,616.499 C 289.407,606.636 297.804,599 308,599 C 318.104,599 326.434,606.5 327.786,616.232 L 353.39,631.014 L 355.988,632.514 L 349.362,643.992 L 354.988,653.737 L 313.828,677.5 z M 265.11,700.638 L 289.346,714.631 L 290.688,715.406 L 290.833,716.948 C 291.227,721.139 293.162,725.021 296.281,727.877 C 299.419,730.75 303.492,732.333 307.75,732.333 C 312.039,732.333 316.132,730.73 319.277,727.819 C 322.404,724.925 324.32,721 324.675,716.768 L 324.807,715.204 L 326.165,714.42 L 350.902,700.138 L 343.085,686.598 L 319.021,700.49 L 317.542,701.344 L 316.053,700.508 C 313.52,699.085 310.648,698.333 307.75,698.333 C 304.799,698.333 301.877,699.116 299.3,700.598 L 297.802,701.459 L 296.305,700.595 L 272.927,687.098 L 265.11,700.638 z M 307.75,735.333 C 297.345,735.333 288.802,727.384 287.846,717.229 L 261.012,701.736 L 270.329,685.598 L 271.829,683 L 297.805,697.997 C 300.737,696.311 304.126,695.333 307.75,695.333 C 311.302,695.333 314.631,696.268 317.521,697.892 L 344.183,682.5 L 345.683,685.098 L 355,701.236 L 327.665,717.018 C 326.807,727.273 318.227,735.333 307.75,735.333" />
      <path
         style="fill:#ffffff;fill-opacity:1;fill-rule:nonzero;stroke:none"
         d="M 362,658.056 L 362,675.297 C 366.708,678.956 369.75,684.658 369.75,691.083 C 369.75,702.129 360.796,711.083 349.75,711.083 C 339.579,711.083 331.201,703.486 329.935,693.66 L 315.719,685.453 C 313.344,686.447 310.736,687 308,687 L 308,686.917 C 305.264,686.917 302.657,686.364 300.281,685.37 L 286.065,693.577 C 284.799,703.403 276.421,711 266.25,711 C 255.204,711 246.25,702.046 246.25,691 C 246.25,684.575 249.292,678.873 254,675.214 L 254,657.973 C 249.15,654.323 246,648.537 246,642 C 246,630.954 254.954,622 266,622 C 277.046,622 286,630.954 286,642 C 286,648.98 282.419,655.117 277,658.695 L 277,672.252 L 288.053,665.871 C 288.6,655.314 297.308,646.917 308,646.917 L 308,647 C 318.693,647 327.4,655.397 327.947,665.954 L 339,672.335 L 339,658.778 C 333.581,655.2 330,649.063 330,642.083 C 330,631.037 338.954,622.083 350,622.083 C 361.046,622.083 370,631.037 370,642.083 C 370,648.62 366.85,654.406 362,658.056" />
      <path
         style="fill:none;stroke:#666666;stroke-width:3;stroke-linecap:butt;stroke-linejoin:miter;stroke-miterlimit:4;stroke-dasharray:none;stroke-opacity:1"
         d="M 362,658.056 L 362,675.297 C 366.708,678.956 369.75,684.658 369.75,691.083 C 369.75,702.129 360.796,711.083 349.75,711.083 C 339.579,711.083 331.201,703.486 329.935,693.66 L 315.719,685.453 C 313.344,686.447 310.736,687 308,687 L 308,686.917 C 305.264,686.917 302.657,686.364 300.281,685.37 L 286.065,693.577 C 284.799,703.403 276.421,711 266.25,711 C 255.204,711 246.25,702.046 246.25,691 C 246.25,684.575 249.292,678.873 254,675.214 L 254,657.973 C 249.15,654.323 246,648.537 246,642 C 246,630.954 254.954,622 266,622 C 277.046,622 286,630.954 286,642 C 286,648.98 282.419,655.117 277,658.695 L 277,672.252 L 288.053,665.871 C 288.6,655.314 297.308,646.917 308,646.917 L 308,647 C 318.693,647 327.4,655.397 327.947,665.954 L 339,672.335 L 339,658.778 C 333.581,655.2 330,649.063 330,642.083 C 330,631.037 338.954,622.083 350,622.083 C 361.046,622.083 370,631.037 370,642.083 C 370,648.62 366.85,654.406 362,658.056 z" />
    </g>
  </g>
</svg>
